<?xml version="1.0" encoding="iso-8859-1"?>
<!-- Generator: Adobe Illustrator 19.0.0, SVG Export Plug-In . SVG Version: 6.00 Build 0)  -->
<svg xmlns="http://www.w3.org/2000/svg" xmlns:xlink="http://www.w3.org/1999/xlink" version="1.1" id="Layer_1" x="0px" y="0px" viewBox="0 0 511.999 511.999" style="enable-background:new 0 0 511.999 511.999;" xml:space="preserve" width="512px" height="512px">
<g>
	<g>
		<rect x="19.738" y="7.924" transform="matrix(0.7071 -0.7071 0.7071 0.7071 -8.9397 26.7902)" width="16.262" height="32.524" fill="#FFFFFF"/>
	</g>
</g>
<g>
	<g>
		<rect x="73.392" y="61.582" transform="matrix(0.7071 -0.7071 0.7071 0.7071 -31.1663 80.4457)" width="16.262" height="32.524" fill="#FFFFFF"/>
	</g>
</g>
<g>
	<g>
		<rect x="11.604" y="69.718" transform="matrix(0.7071 -0.7071 0.7071 0.7071 -46.8854 42.5058)" width="32.524" height="16.262" fill="#FFFFFF"/>
	</g>
</g>
<g>
	<g>
		<rect x="65.267" y="16.052" transform="matrix(0.7071 -0.7071 0.7071 0.7071 6.779 64.7325)" width="32.524" height="16.262" fill="#FFFFFF"/>
	</g>
</g>
<g>
	<g>
		<rect x="46.569" y="42.887" width="16.262" height="16.262" fill="#FFFFFF"/>
	</g>
</g>
<g>
	<g>
		
			<rect x="432.053" y="73.163" transform="matrix(0.7071 -0.7071 0.7071 0.7071 65.6938 337.4494)" width="16.262" height="32.524" fill="#FFFFFF"/>
	</g>
</g>
<g>
	<g>
		
			<rect x="485.724" y="126.826" transform="matrix(0.7071 -0.7071 0.7071 0.7071 43.4681 391.1176)" width="16.262" height="32.524" fill="#FFFFFF"/>
	</g>
</g>
<g>
	<g>
		
			<rect x="423.926" y="134.956" transform="matrix(0.7071 -0.7071 0.7071 0.7071 27.7506 353.1691)" width="32.524" height="16.262" fill="#FFFFFF"/>
	</g>
</g>
<g>
	<g>
		
			<rect x="477.587" y="81.298" transform="matrix(0.7071 -0.7071 0.7071 0.7071 81.4094 375.3975)" width="32.524" height="16.262" fill="#FFFFFF"/>
	</g>
</g>
<g>
	<g>
		<rect x="458.886" y="108.134" width="16.262" height="16.262" fill="#FFFFFF"/>
	</g>
</g>
<g>
	<g>
		<path d="M414.337,264.125l24.66-27.725l-31.226-29.043l3.077-3.368l-30.6-28.523l4.781-5.057l-44.122-41.148l-3.57,3.776    l-9.532-8.846c5.684-1.615,11.144-4.119,16.193-7.504c12.627-8.468,21.2-21.347,24.141-36.262l1.511-7.667L252.894,44.885    L240.44,55.46l-64.356-29.593l-3.544,6.965c-6.894,13.55-8.101,28.974-3.394,43.431c3.258,10.009,9.083,18.721,16.854,25.425    l-9.86,8.373l-34.314-14.053l-13.865,43.464l0.09,18l-30.84,139.832l13.688,6.324L0,460.598l13.282,9.383l112.63-159.419    l137.857,63.683l32.853-3.86l4.85,7.269l-79.557,12.098l-69.63,106.345l13.605,8.908l65.651-100.268l79.894-12.15l75.046,112.477    l13.528-9.026l-95.389-142.967l-38.194,4.487l-150.515-69.532l4.479-20.308l34.668,12.127l5.37-15.35l-36.51-12.771l6.273-28.44    l34.625,12.112l5.37-15.35l-36.468-12.756l8.437-38.252l37.839,13.236l5.37-15.35l-41.073-14.367l-0.052-10.593l7.73-24.232    l99.244,40.645l-20.813,24.106l32.026,29.798l-10.705,11.323l44.122,41.147l5.48-5.797l32.043,29.867l16.774-18.363l32.053,29.812    l21.045-23.66l95.459,135.866l13.306-9.349L414.337,264.125z M184.609,71.228c-2.543-7.813-2.669-16.023-0.447-23.747    l42.604,19.59l-28.149,23.902C192.08,86.01,187.203,79.197,184.609,71.228z M193.088,116.999l64.048-54.383l92.819,22.158    c-3.02,7.45-8.188,13.83-15.011,18.407c-6.715,4.505-14.438,6.856-22.342,6.898l-0.981-0.911h-8.162l-34.052-4.703l-17.242,36.728    L193.088,116.999z M282.076,122.626l-7.077,8.197l4.044-8.616L282.076,122.626z M252.946,181.25l48.192-55.818h1.138    c1.172,0.21,2.344,0.38,3.517,0.517l19.967,18.53l-52.229,55.924L252.946,181.25z M294.821,241.564l-20.032-18.681l1.026-1.099    l65.815-69.612l18.816,17.547L294.821,241.564z M338.23,259.382l-5.794,6.343l-19.943-18.589l56.586-59.851l17.975,16.754    l-49.043,55.138L338.23,259.382z M381.09,277.037l-19.984-18.588l35.7-39.083l19.472,18.111L381.09,277.037z" fill="#FFFFFF"/>
	</g>
</g>
<g>
</g>
<g>
</g>
<g>
</g>
<g>
</g>
<g>
</g>
<g>
</g>
<g>
</g>
<g>
</g>
<g>
</g>
<g>
</g>
<g>
</g>
<g>
</g>
<g>
</g>
<g>
</g>
<g>
</g>
</svg>
