<?xml version="1.0" encoding="iso-8859-1"?>
<!-- Generator: Adobe Illustrator 19.0.0, SVG Export Plug-In . SVG Version: 6.00 Build 0)  -->
<svg xmlns="http://www.w3.org/2000/svg" xmlns:xlink="http://www.w3.org/1999/xlink" version="1.1" id="Layer_1" x="0px" y="0px" viewBox="0 0 511.999 511.999" style="enable-background:new 0 0 511.999 511.999;" xml:space="preserve" width="512px" height="512px">
<g>
	<g>
		<path d="M503.749,226.95h-4.352v-38.073c0-16.017-13.032-29.047-29.048-29.047h-16.188v-16.132    c0-16.018-13.03-29.049-29.048-29.049h-31.152c-16.017,0-29.048,13.031-29.048,29.049v83.252H147.087v-83.252    c0-16.018-13.03-29.049-29.048-29.049H86.887c-16.017,0-29.048,13.031-29.048,29.049v16.132H41.652    c-16.017,0-29.048,13.03-29.048,29.047v38.073H8.251c-4.557,0-8.251,3.693-8.251,8.251v41.596c0,4.558,3.694,8.251,8.251,8.251    h4.353v38.071c0,16.017,13.031,29.047,29.048,29.047h16.187v16.134c0,16.017,13.03,29.048,29.048,29.048h31.152    c16.017,0,29.048-13.031,29.048-29.048v-83.253h217.826v83.253c0,16.017,13.03,29.048,29.048,29.048h31.152    c16.017,0,29.048-13.031,29.048-29.048v-16.134h16.187c16.017,0,29.048-13.03,29.048-29.047v-38.071h4.352    c4.557,0,8.251-3.693,8.251-8.251v-41.596C512,230.644,508.306,226.95,503.749,226.95z M57.839,335.664H41.652    c-6.918,0-12.545-5.627-12.545-12.544V188.878c0-6.917,5.628-12.544,12.545-12.544h16.187V335.664z M130.585,368.301    c0,6.918-5.627,12.545-12.545,12.545H86.887c-6.918,0-12.545-5.627-12.545-12.545V143.698c0-6.918,5.627-12.546,12.545-12.546    h31.152c6.918,0,12.545,5.628,12.545,12.546V368.301z M182.645,268.546h-35.557v-25.094h35.557V268.546z M312.857,268.546h-113.71    v-25.094h113.71V268.546z M364.913,268.546H329.36v-25.094h35.553V268.546z M437.658,368.301c0,6.918-5.627,12.545-12.545,12.545    h-31.152c-6.918,0-12.545-5.627-12.545-12.545V143.698c0-6.918,5.627-12.546,12.545-12.546h31.152    c6.918,0,12.545,5.628,12.545,12.546V368.301z M482.893,323.12c0,6.917-5.628,12.544-12.545,12.544h-16.187V176.332h16.187    c6.918,0,12.545,5.627,12.545,12.544V323.12z" fill="#757575"/>
	</g>
</g>
<g>
</g>
<g>
</g>
<g>
</g>
<g>
</g>
<g>
</g>
<g>
</g>
<g>
</g>
<g>
</g>
<g>
</g>
<g>
</g>
<g>
</g>
<g>
</g>
<g>
</g>
<g>
</g>
<g>
</g>
</svg>
