<?xml version="1.0" encoding="iso-8859-1"?>
<!-- Generator: Adobe Illustrator 19.0.0, SVG Export Plug-In . SVG Version: 6.00 Build 0)  -->
<svg xmlns="http://www.w3.org/2000/svg" xmlns:xlink="http://www.w3.org/1999/xlink" version="1.1" id="Layer_1" x="0px" y="0px" viewBox="0 0 496 496" style="enable-background:new 0 0 496 496;" xml:space="preserve" width="512px" height="512px">
<g>
	<g>
		<g>
			<path d="M440,304c-10.032,0-19.64,4.32-28.048,12.512c-3.56-3.456-7.352-6.304-11.368-8.368L417.144,184h-66.28l16.552,124.144     c-4.016,2.064-7.808,4.912-11.368,8.368C347.648,308.376,337.968,304,328,304c-5.136,0-10.056,1.232-14.744,3.352     C317.608,277.864,320,248.896,320,224c0-66.728-16.408-93.912-43.016-104.84l71.096-63.192L287.224,2.52l-31.912,66.832     L265.224,0h-82.448l9.912,69.352L160.776,2.52L99.92,55.968l71.096,63.192C144.408,130.088,128,157.272,128,224     c0,20.48,1.688,43.84,4.736,68.128c-6.664-1.92-13.6-3.176-20.736-3.72V272c0-22.056-17.944-40-40-40H56v16h16     c13.232,0,24,10.768,24,24v16.408C42.392,292.52,0,337.352,0,392c0,57.344,46.656,104,104,104     c30.472,0,57.832-13.248,76.872-34.2C194.256,484.496,208.728,496,224,496c19.448,0,37.368-18.232,53.44-54.288     C286.352,474.064,305.384,496,328,496c10.032,0,19.64-4.32,28.048-12.512C364.232,491.432,373.744,496,384,496     c10.256,0,19.768-4.568,27.952-12.512C420.36,491.68,429.96,496,440,496c31.4,0,56-42.168,56-96C496,346.168,471.4,304,440,304z      M398.864,200l-13.872,104.08c-0.336-0.008-0.656-0.08-0.992-0.08s-0.656,0.072-0.984,0.08L369.144,200H398.864z M292.552,28.496     l31.36,27.544l-65.224,57.984l0.136,0.152c-2.2-0.368-4.448-0.664-6.736-0.92L292.552,28.496z M246.776,16l-13.712,96h-18.128     l-13.712-96H246.776z M124.088,56.032l31.36-27.544l40.464,84.76c-2.288,0.256-4.536,0.56-6.736,0.92l0.136-0.152L124.088,56.032     z M104,480c-48.52,0-88-39.48-88-88c0-45.824,35.216-83.536,80-87.592v47.168c-26.248-2.6-32.2-17.536-32.456-18.232     l-15.136,5.184C48.816,339.736,58.76,368,104,368s55.184-28.264,55.584-29.472l-15.168-5.064     c-0.056,0.168-6.008,15.448-32.416,18.104V304.4c44.784,4.064,80,41.776,80,87.6C192,440.52,152.52,480,104,480z      M272.368,410.912C257.192,454.2,239.168,480,224,480c-10,0-21.448-11.408-32.48-32.032C201.896,431.792,208,412.608,208,392     c0-40.936-23.832-76.312-58.288-93.272C146.008,272,144,246.224,144,224c0-96,35.304-96,80-96c39.04,0,70.912,0.008,78.352,64     H248v16h55.624c0.24,5.024,0.376,10.328,0.376,16c0,5.144-0.144,10.528-0.344,16H216v16h86.8c-0.712,10.36-1.728,21.072-3.056,32     H280v16h17.576c-0.904,6.184-1.896,12.384-2.984,18.592C280.824,339.92,272,367.832,272,400     C272,403.704,272.144,407.336,272.368,410.912z M328,480c-21.68,0-40-36.64-40-80c0-30.152,8.864-57.016,21.552-70.608     l0.112,0.024c0.008-0.056,0.016-0.104,0.024-0.16C315.216,323.392,321.448,320,328,320c7.256,0,13.328,4.192,17.976,9.088     C334.896,346.52,328,371.592,328,400c0,28.416,6.896,53.504,17.992,70.936C341.672,475.44,335.472,480,328,480z M384,480     c-21.68,0-40-36.64-40-80s18.32-80,40-80s40,36.64,40,80S405.68,480,384,480z M440,480c-7.48,0-13.68-4.56-17.992-9.072     C433.104,453.496,440,428.416,440,400c0-28.416-6.896-53.504-17.992-70.928C426.328,324.56,432.528,320,440,320     c21.68,0,40,36.64,40,80S461.68,480,440,480z" fill="#BDBDBD"/>
			<rect x="216" y="192" width="16" height="16" fill="#BDBDBD"/>
			<rect x="216" y="288" width="48" height="16" fill="#BDBDBD"/>
		</g>
	</g>
</g>
<g>
</g>
<g>
</g>
<g>
</g>
<g>
</g>
<g>
</g>
<g>
</g>
<g>
</g>
<g>
</g>
<g>
</g>
<g>
</g>
<g>
</g>
<g>
</g>
<g>
</g>
<g>
</g>
<g>
</g>
</svg>
